# xmcd
#
# Track frame offsets: 
#        150
#        16694
#        29468
#        52166
#        73430
#        89155
#        112585
#        128119
#        147603
#        162238
#        179841
#        198236
#        214112
#        235471
#        262624
#
# Disc length: 3678 seconds
#
# Revision: 0
# Processed by: cddbd v1.5.2PL0 Copyright (c) Steve Scherf et al.
# Submitted via: ExactAudioCopy v1.3
#
DISCID=e00e5c0f
DTITLE=Blues Counsel - Slow Demolition
DYEAR=2017
DGENRE=Blues
TTITLE0=Lord Have Mercy On Me
TTITLE1=At The River
TTITLE2=Look Up Child
TTITLE3=Slow Demolition
TTITLE4=Wish I Knew Then
TTITLE5=Right On The Line
TTITLE6=Back To You
TTITLE7=By Me
TTITLE8=Drop
TTITLE9=Best We've Ever Been
TTITLE10=Walk A Mile
TTITLE11=Ain't It Good
TTITLE12=Heaven Can't Sit Down
TTITLE13=Over
TTITLE14=Heaven To Me Now
EXTD=
EXTT0=
EXTT1=
EXTT2=
EXTT3=
EXTT4=
EXTT5=
EXTT6=
EXTT7=
EXTT8=
EXTT9=
EXTT10=
EXTT11=
EXTT12=
EXTT13=
EXTT14=
PLAYORDER=
